<svg width="825" height="656" viewBox="0 0 825 656" fill="none" xmlns="http://www.w3.org/2000/svg">
<path d="M128.707 481.245V415.733H0V363.264L147.549 173.683H187.552V362.685H226.396V415.443H187.552V480.956H128.707V481.245ZM59.1355 362.685H135.374V263.256L59.1355 362.685Z" fill="#171717"/>
<path d="M727.021 481.245V415.733H598.314V363.264L746.153 173.683H786.157V362.685H825V415.443H786.157V480.956H727.021V481.245ZM657.45 362.685H733.688V263.256L657.45 362.685Z" fill="#171717"/>
<path d="M102.038 553.425C105.807 557.194 112.184 557.194 116.242 553.425L125.229 544.439C128.997 540.67 128.997 534.293 125.229 530.235C121.46 526.466 115.083 526.466 111.025 530.235L102.038 539.221C98.2698 543.279 98.2698 549.367 102.038 553.425Z" fill="#FFF176"/>
<path d="M95.6612 616.33C91.8928 612.561 85.5154 612.561 81.4571 616.33L72.4709 625.316C68.7024 629.084 68.7024 635.462 72.4709 639.52C76.2393 643.289 82.6166 643.289 86.675 639.52L95.6612 630.534C99.4297 626.476 99.4297 620.388 95.6612 616.33Z" fill="#FFF176"/>
<path d="M184.075 612.271C180.307 608.502 173.929 608.502 169.871 612.271L150.159 631.983C146.391 635.751 146.391 642.129 150.159 646.187C153.928 649.955 160.305 649.955 164.363 646.187L184.075 626.475C188.134 622.417 188.134 616.329 184.075 612.271Z" fill="#FFF176"/>
<path d="M238.281 403.268L137.113 504.146C133.344 507.914 133.344 514.291 137.113 518.35C140.881 522.118 147.258 522.118 151.317 518.35L182.914 486.753C186.682 482.984 193.059 482.984 197.118 486.753C200.886 490.521 200.886 496.899 197.118 500.957L105.226 592.849C101.457 596.617 101.457 602.995 105.226 607.053C108.994 610.821 115.372 610.821 119.43 607.053L186.972 538.931C190.74 535.163 197.118 535.163 201.176 538.931C204.944 542.7 204.944 549.077 201.176 553.135L183.493 570.818C179.725 574.586 179.725 580.964 183.493 585.022C187.262 588.791 193.639 588.791 197.697 585.022L253.354 529.365C257.123 525.597 263.5 525.597 267.558 529.365C271.327 533.134 271.327 539.511 267.558 543.569L247.557 563.571C243.788 567.339 243.788 573.717 247.557 577.775C251.325 581.544 257.702 581.544 261.761 577.775L336.84 502.696L238.281 403.268Z" fill="#FFF176"/>
<path d="M327.854 540.381L384.381 447.04L293.359 356.018L200.017 412.544C199.438 412.834 199.148 413.124 198.858 413.414C188.712 421.53 209.873 457.765 246.398 494.29C282.923 530.815 319.158 551.976 327.274 541.83C327.274 541.251 327.564 540.671 327.854 540.381Z" fill="#757575"/>
<path d="M358.003 490.231L384.382 446.75L293.36 355.727L249.878 382.106C257.125 394.861 275.677 417.182 299.157 440.952C322.928 464.722 345.248 483.274 358.003 490.231Z" fill="#616161"/>
<path d="M333.652 228.76L207.265 235.137L84.6455 357.756L212.772 303.839L286.982 314.564L360.611 279.779L333.652 228.76Z" fill="#E53935"/>
<path d="M511.347 406.456L504.97 532.554L382.351 655.173L436.268 527.336L425.543 453.127L460.328 379.498L511.347 406.456Z" fill="#E53935"/>
<path d="M573.385 359.785C531.062 402.108 482.942 433.995 435.982 457.765C435.692 457.765 435.402 458.055 435.112 458.055C428.155 459.794 391.34 429.936 350.757 389.353C309.884 348.48 280.316 311.955 281.766 304.708C281.766 304.418 282.056 304.129 282.056 303.839C305.826 256.878 337.713 208.758 380.035 166.436C442.649 103.822 518.018 64.1081 583.821 39.1785L700.352 156.29C675.712 221.803 635.999 297.171 573.385 359.785Z" fill="white"/>
<path d="M583.819 39.4687L700.351 156.29C729.629 78.8923 738.615 14.8289 740.065 2.07421C740.354 0.914691 739.195 -0.244827 738.035 0.0450524C725.281 1.20457 661.217 10.1908 583.819 39.4687Z" fill="#E53935"/>
<path d="M350.465 389.353C308.142 347.031 277.415 308.767 282.053 304.129C271.908 324.42 262.921 344.422 255.384 363.554C250.746 368.192 273.937 398.919 307.273 432.255C340.609 465.592 371.336 488.782 375.974 484.144C395.106 476.607 415.108 467.911 435.4 457.475C431.051 462.403 392.787 431.966 350.465 389.353Z" fill="#BDBDBD"/>
<path d="M486.421 335.726C531.888 335.726 568.746 298.867 568.746 253.4C568.746 207.933 531.888 171.074 486.421 171.074C440.953 171.074 404.095 207.933 404.095 253.4C404.095 298.867 440.953 335.726 486.421 335.726Z" fill="#616161"/>
<path d="M526.002 293.039C547.851 271.19 547.851 235.767 526.002 213.919C504.154 192.07 468.731 192.07 446.882 213.919C425.034 235.767 425.034 271.19 446.882 293.039C468.731 314.887 504.154 314.887 526.002 293.039Z" fill="#26C6DA"/>
<path d="M538.888 208.178C536.859 210.208 533.67 210.208 531.931 208.178C529.902 206.149 529.902 202.961 531.931 201.221C533.96 199.192 537.149 199.192 538.888 201.221C540.917 202.961 540.917 206.149 538.888 208.178Z" fill="#E0E0E0"/>
<path d="M555.702 258.328C553.093 258.328 550.774 256.009 550.774 253.4C550.774 250.791 553.093 248.472 555.702 248.472C558.311 248.472 560.63 250.791 560.63 253.4C560.63 256.299 558.311 258.328 555.702 258.328Z" fill="#E0E0E0"/>
<path d="M531.931 305.868C529.902 303.839 529.902 300.65 531.931 298.911C533.96 296.882 537.149 296.882 538.888 298.911C540.917 300.94 540.917 304.129 538.888 305.868C536.859 307.897 533.96 307.897 531.931 305.868Z" fill="#E0E0E0"/>
<path d="M481.493 322.681C481.493 320.072 483.812 317.753 486.421 317.753C489.03 317.753 491.349 320.072 491.349 322.681C491.349 325.29 489.03 327.609 486.421 327.609C483.812 327.609 481.493 325.29 481.493 322.681Z" fill="#E0E0E0"/>
<path d="M434.243 298.621C436.272 296.592 439.46 296.592 441.2 298.621C443.229 300.651 443.229 303.839 441.2 305.579C439.171 307.608 435.982 307.608 434.243 305.579C432.213 303.839 432.213 300.651 434.243 298.621Z" fill="#E0E0E0"/>
<path d="M417.43 248.472C420.039 248.472 422.358 250.791 422.358 253.4C422.358 256.009 420.039 258.328 417.43 258.328C414.821 258.328 412.502 256.009 412.502 253.4C412.502 250.791 414.531 248.472 417.43 248.472Z" fill="#E0E0E0"/>
<path d="M441.2 200.932C443.229 202.961 443.229 206.149 441.2 207.889C439.171 209.918 435.982 209.918 434.243 207.889C432.213 205.859 432.213 202.671 434.243 200.932C435.982 198.902 439.171 198.902 441.2 200.932Z" fill="#E0E0E0"/>
<path d="M491.64 184.409C491.64 187.017 489.321 189.336 486.712 189.336C484.103 189.336 481.784 187.017 481.784 184.409C481.784 181.8 484.103 179.481 486.712 179.481C489.321 179.191 491.64 181.51 491.64 184.409Z" fill="#E0E0E0"/>
<path d="M509.32 202.381L435.69 276.01C433.951 272.532 432.792 268.763 431.922 264.705L498.014 198.613C501.783 199.482 505.841 200.932 509.32 202.381Z" fill="#80DEEA"/>
<path d="M535.99 227.31L460.621 302.679C452.794 298.621 446.127 292.533 441.199 285.576L518.887 207.888C525.844 212.816 531.642 219.484 535.99 227.31Z" fill="#80DEEA"/>
<path d="M135.081 336.595V353.118L187.549 322.681V314.564L135.081 336.595Z" fill="#BDBDBD"/>
</svg>
