<svg width="220" height="48" viewBox="0 0 220 48" fill="none" xmlns="http://www.w3.org/2000/svg">
<path d="M37.7203 15.7603C37.5783 15.5615 37.4363 15.3627 37.2943 15.164C35.9029 13.2046 28.0937 3.60644 11.3396 8.17834C8.30109 8.97345 5.60339 10.7908 3.75759 13.3466C3.38843 13.8577 2.99088 14.454 2.65011 15.0788C2.93408 15.1356 3.27484 15.0504 3.50202 14.7948C4.63789 13.4318 6.08613 12.5231 7.13682 12.0119C8.07392 11.5576 9.23819 11.9835 9.60735 12.9774C10.0617 14.1701 10.4309 16.1863 10.0049 19.5939C9.60735 22.8311 8.89743 24.4781 8.27269 25.3017C7.67636 26.0968 6.48369 26.1252 5.83056 25.3584C4.35393 23.6546 4.75148 20.3038 4.75148 20.2754C3.10446 22.6891 4.06996 28.5105 4.46751 30.4415C4.5527 30.839 4.6095 31.2366 4.69469 31.6342C5.74537 37.7679 12.1347 43.93 12.1347 43.93C12.1347 43.93 11.2828 43.6744 6.3985 39.3297C1.51424 34.985 0.0376009 24.109 0.0376009 24.109C0.0376009 24.109 -1.32545 41.6015 12.3618 46.7413C12.5038 46.7981 12.6174 46.8265 12.7594 46.8833C14.0657 47.3944 24.9133 51.1428 35.2781 38.9322C45.3022 27.1191 38.9981 17.4641 37.7203 15.7603ZM19.4895 43.0781C31.047 40.4088 36.556 29.7884 36.556 29.7884C31.6149 44.2708 19.4895 43.0781 19.4895 43.0781Z" fill="#0071BC"/>
<path d="M6.37011 39.3013C11.2544 43.646 12.1063 43.9016 12.1063 43.9016C12.1063 43.9016 5.71698 37.7679 4.66629 31.6058C4.6095 31.2082 4.52431 30.8107 4.43912 30.4131C4.04156 28.4821 3.07607 22.6608 4.72309 20.247C4.72309 20.247 4.32553 23.5979 5.80217 25.3301C6.4553 26.0684 7.61957 26.04 8.2443 25.2733C8.89743 24.4498 9.60735 22.8027 9.97651 19.5655C10.3741 16.1579 10.0333 14.1133 9.57895 12.949C9.1814 11.9551 8.04552 11.5292 7.10842 11.9835C6.05774 12.4947 4.6095 13.375 3.47362 14.7664C3.24645 15.022 2.93408 15.1356 2.62172 15.0504C-0.21797 19.8211 0.00920482 24.0806 0.00920482 24.0806C0.00920482 24.0806 1.48584 34.9566 6.37011 39.3013Z" fill="white"/>
<path d="M36.5558 29.7883C36.5558 29.7883 31.0184 40.4088 19.4893 43.0781C19.4893 43.0781 31.6147 44.2707 36.5558 29.7883Z" fill="white"/>
<path d="M33.1737 15.2894C34.1153 12.6447 31.5009 9.29817 27.3343 7.81481C23.1678 6.33146 19.0268 7.27295 18.0852 9.91769C17.1437 12.5624 19.7581 15.9089 23.9246 17.3923C28.0912 18.8756 32.2322 17.9341 33.1737 15.2894Z" fill="white"/>
<path d="M19.972 27.7721C19.1201 27.7721 18.2682 27.4313 17.6718 26.8066C16.6779 25.8127 15.1161 24.1657 13.2135 21.8655C12.1628 20.6161 10.8566 18.2591 12.3048 15.4195C8.89719 13.6872 6.9946 9.17215 6.25628 7.04238C6.0575 6.47444 6.14269 5.87811 6.42666 5.36696C6.73903 4.85582 7.25017 4.51506 7.81811 4.42987C9.57872 4.1459 11.4813 3.54956 11.4813 3.54956C12.9295 3.06682 14.3494 2.83964 15.684 2.83964C17.5298 2.83964 18.9213 3.29399 19.8868 3.77674C20.7955 2.58407 22.1017 1.81735 23.6352 1.56178C23.7488 1.53339 23.8623 1.53339 23.9759 1.53339C24.9414 1.53339 25.8217 2.15812 26.1625 3.06682C26.7588 4.79903 26.6736 6.55963 26.5884 7.43994C26.4749 8.46222 25.5946 9.22894 24.5723 9.22894C24.4871 9.22894 24.4019 9.22894 24.3451 9.20054C23.8623 9.14375 23.408 9.11535 23.0104 9.11535C20.3979 9.11535 19.972 10.1944 19.9152 10.45V10.734L19.8016 10.7908C19.7448 11.1031 19.4892 13.0057 22.7833 15.0503C24.3167 15.9874 25.9069 16.4701 27.5255 16.4701C28.5478 16.4701 29.3145 16.2714 29.6837 16.1578C29.9393 16.0726 30.1948 16.0158 30.422 15.959L30.564 15.9306C30.6492 15.9022 30.99 15.533 31.1603 14.454C31.3591 13.1761 30.1381 12.1254 29.3997 11.6143C28.5762 11.0463 28.1219 10.1376 28.1787 9.14375C28.2923 6.70162 27.9799 5.083 27.8095 4.34468C27.6675 3.74834 27.7811 3.15201 28.1503 2.66926C28.5194 2.18651 29.0874 1.93094 29.6837 1.93094C29.7689 1.93094 29.8257 1.93094 29.9109 1.93094C32.637 2.24331 34.4828 4.45826 35.3347 5.73612C35.6186 6.16208 35.931 6.55963 36.1582 6.872C37.4644 8.51902 37.5212 10.1376 37.2941 11.3019C38.7139 11.8415 40.5597 13.0057 41.5536 15.533C42.3771 17.6628 43.087 18.6567 43.4278 19.0827C43.8253 19.537 43.9957 20.1333 43.9105 20.7297C43.8253 21.326 43.4846 21.8372 42.9734 22.1779C40.1338 23.9953 37.4928 24.904 35.0791 24.904C33.9148 24.904 32.9209 24.6768 32.1258 24.3929C31.9555 24.9608 31.6715 25.472 31.2739 25.8979C30.3368 26.9486 28.8602 27.4597 26.8724 27.4597C26.7304 27.4597 26.6168 27.4597 26.4749 27.4597C25.8217 27.4313 25.197 27.4313 24.6291 27.4313C22.4425 27.4313 21.2498 27.5733 20.6251 27.7153C20.3979 27.7437 20.1708 27.7721 19.972 27.7721Z" fill="#537A39"/>
<path d="M23.976 3.12366C24.2884 3.12366 24.5723 3.32243 24.6859 3.6348C25.1971 5.08304 25.1119 6.55968 25.0267 7.298C24.9983 7.52517 24.7995 7.69555 24.5723 7.69555C24.5439 7.69555 24.5439 7.69555 24.5155 7.69555C23.9476 7.63876 23.4365 7.61036 22.9821 7.61036C18.609 7.61036 18.325 10.3081 18.325 10.3081C18.325 10.3081 17.2175 13.4601 21.9598 16.4134C24.0612 17.7197 26.0206 18.0888 27.5256 18.0888C28.7183 18.0888 29.627 17.8616 30.1665 17.6913C30.4221 17.6061 30.706 17.5493 30.99 17.4641C31.5012 17.3221 32.4099 16.8109 32.7222 14.6812C33.0346 12.523 31.274 10.9896 30.2801 10.3081C29.9109 10.0525 29.7122 9.62654 29.7122 9.20059C29.8257 6.55968 29.485 4.77067 29.2862 3.94717C29.2294 3.69159 29.3998 3.46442 29.6554 3.46442C29.6838 3.46442 29.6838 3.46442 29.7122 3.46442C31.8419 3.71999 33.3186 5.56579 34.0001 6.58808C34.2841 7.01403 34.5964 7.41158 34.9088 7.80914C36.4138 9.68333 35.7039 11.4723 35.3347 12.1255C35.2779 12.2391 35.3347 12.4094 35.4767 12.4094C36.357 12.5514 38.9411 13.1761 40.077 16.0726C40.9573 18.3444 41.7524 19.5087 42.2352 20.0766C42.434 20.3038 42.3772 20.6729 42.1216 20.8433C39.1683 22.7175 36.8398 23.3422 35.0508 23.3422C33.2618 23.3422 32.0407 22.7459 31.3024 22.2064C31.2456 22.1496 31.1604 22.1212 31.0752 22.1212C30.8764 22.1212 30.6777 22.2915 30.706 22.5471C30.848 23.8818 30.4505 25.8979 26.8441 25.8979C26.7305 25.8979 26.6169 25.8979 26.5033 25.8979C25.8218 25.8696 25.1687 25.8696 24.6007 25.8696C22.329 25.8696 21.0227 26.0399 20.2844 26.1819C20.1708 26.2103 20.0572 26.2103 19.9436 26.2103C19.4893 26.2103 19.0633 26.0399 18.751 25.7276C17.8991 24.8757 16.3088 23.2286 14.3778 20.9001C11.4246 17.3221 15.0026 14.5676 14.8038 14.5676C10.6579 14.2552 8.32931 8.32028 7.73298 6.55968C7.64779 6.30411 7.81817 6.04853 8.07374 5.99174C9.94794 5.67938 11.9357 5.05464 11.9357 5.05464C13.3556 4.5719 14.605 4.40152 15.6557 4.40152C18.1262 4.40152 19.6313 5.36701 20.1708 5.79296C20.2276 5.82136 20.256 5.84976 20.3128 5.84976C20.398 5.84976 20.4832 5.79296 20.54 5.70777C21.3635 3.77678 22.9821 3.23724 23.834 3.12366C23.8908 3.12366 23.9192 3.12366 23.976 3.12366ZM23.976 0C23.7772 0 23.5784 0.0283969 23.3797 0.0567937C21.8746 0.283969 20.54 0.937097 19.4609 1.93099C18.4386 1.56183 17.1891 1.30626 15.6557 1.30626C14.1507 1.30626 12.5888 1.56183 10.9702 2.10137C10.7998 2.15816 9.09603 2.66931 7.5342 2.92488C6.48352 3.09526 5.60321 3.71999 5.06367 4.60029C4.52413 5.50899 4.41055 6.58808 4.75131 7.58197C5.46123 9.68333 7.22184 13.8009 10.3455 16.101V16.1294C9.69236 18.4296 10.2887 20.8433 11.9925 22.8879C13.9519 25.2164 15.5421 26.9202 16.5644 27.9141C17.4731 28.8228 18.6942 29.334 19.972 29.334C20.3128 29.334 20.6252 29.3056 20.9375 29.2204C21.3919 29.1352 22.471 28.9648 24.6291 28.9648C25.1971 28.9648 25.7934 28.9648 26.4181 28.9932C26.5601 28.9932 26.7305 28.9932 26.8725 28.9932C29.3146 28.9932 31.1604 28.2833 32.4099 26.8918C32.6086 26.6647 32.779 26.4375 32.9494 26.2103C33.6025 26.3523 34.2841 26.4375 35.0792 26.4375C37.8053 26.4375 40.7301 25.4436 43.8254 23.4558C44.7057 22.8879 45.302 21.9792 45.444 20.9285C45.586 19.8778 45.302 18.8271 44.6205 18.032C44.4501 17.8048 43.797 16.9529 43.0019 14.9368C42.0648 12.523 40.4462 11.1316 38.9695 10.3081C38.9695 8.74624 38.4584 7.18441 37.3793 5.84976C37.0386 5.4238 36.8114 5.11144 36.641 4.82747C35.6471 3.32243 33.4605 0.738319 30.1097 0.340762C29.9677 0.312366 29.8257 0.312366 29.6838 0.312366C28.6615 0.312366 27.7244 0.738319 27.0713 1.50503C26.3329 0.567938 25.1971 0 23.976 0ZM24.5439 10.8192C25.339 10.8192 26.0774 10.5636 26.6737 10.1093C26.9009 11.2168 27.5256 12.2107 28.4911 12.8922C29.1726 13.3465 29.6554 13.9429 29.5986 14.2268C29.5702 14.3688 29.5418 14.5108 29.5134 14.596C29.3998 14.6244 29.2862 14.6528 29.1726 14.7096C28.8886 14.7948 28.2923 14.9652 27.4972 14.9652C26.1909 14.9652 24.8563 14.5676 23.5784 13.7725C21.7326 12.6366 21.2783 11.6143 21.3067 11.16L21.3635 11.018C21.5339 10.9044 22.0166 10.734 22.9537 10.734C23.2945 10.734 23.692 10.7624 24.118 10.8192C24.26 10.7908 24.4019 10.8192 24.5439 10.8192Z" fill="white"/>
<path d="M26.7876 1.7038C26.0777 1.33464 25.2826 2.01616 25.5098 2.78288C25.9073 4.20272 26.7308 7.95111 25.1122 10.3081C23.0676 13.2897 26.0777 13.6873 26.0777 13.6873C26.0777 13.6873 28.2359 14.4256 28.4914 10.876C28.4914 10.876 29.2865 5.13982 27.5259 2.38532C27.3839 2.15815 27.2136 1.98777 27.0148 1.81739C26.958 1.81739 26.8728 1.76059 26.7876 1.7038Z" fill="#537A39"/>
<path d="M56.5189 31.8046H54.0483V14.8517H56.5189V27.5167L65.1231 14.8517H68.1048L62.539 22.8312L65.5775 27.4031C66.117 28.1982 66.5998 28.7094 67.0257 28.9649C67.4517 29.2205 67.8492 29.3341 68.2184 29.3057L68.9283 29.2773V31.8046H68.048C67.6504 31.8046 67.2813 31.7762 66.9121 31.7478C66.543 31.691 66.2022 31.6058 65.8614 31.4071C65.5207 31.2367 65.1515 30.9811 64.7824 30.612C64.4132 30.2428 64.044 29.76 63.6465 29.1353L61.0908 25.0178L56.5189 31.8046Z" fill="black"/>
<path d="M75.3178 31.8046H72.9893V20.0483H75.3178V24.7622C75.7154 24.5634 76.1697 24.4782 76.7092 24.4782C77.192 24.4782 77.7599 24.535 78.4131 24.6486C79.0662 24.7622 79.6625 24.819 80.2589 24.819C80.5144 24.819 80.77 24.7906 80.9972 24.7622C81.2528 24.7338 81.4799 24.6486 81.7355 24.535V20.0483H84.064V31.8046H81.7355V26.8919C81.5083 27.0055 81.2811 27.0907 81.054 27.1191C80.8268 27.1475 80.5996 27.1759 80.344 27.1759C79.7193 27.1759 79.0946 27.1191 78.5266 27.0055C77.9587 26.8919 77.3624 26.8351 76.7944 26.8351C76.5389 26.8351 76.2833 26.8635 76.0561 26.8919C75.8005 26.9203 75.5734 27.0055 75.3178 27.1191V31.8046Z" fill="black"/>
<path d="M94.9401 32.1737C94.1166 32.1737 93.3783 32.0886 92.6684 31.8898C91.9868 31.691 91.3905 31.407 90.8794 30.9811C90.3682 30.5835 89.9707 30.0724 89.6867 29.4476C89.4027 28.8229 89.2607 28.0846 89.2607 27.2043V20.0483H91.5893V27.2043C91.5893 27.7154 91.6745 28.113 91.8165 28.4538C91.9868 28.7945 92.214 29.0501 92.498 29.2489C92.782 29.4476 93.1511 29.5896 93.5487 29.6748C93.9462 29.76 94.4006 29.7884 94.9117 29.7884C95.4229 29.7884 95.8772 29.76 96.2748 29.6748C96.6723 29.5896 97.0415 29.4476 97.3255 29.2489C97.6094 29.0501 97.8366 28.7661 98.007 28.4538C98.1774 28.113 98.2342 27.7154 98.2342 27.2043V20.0483H100.563V27.2043C100.563 28.0562 100.421 28.8229 100.137 29.4476C99.8528 30.0724 99.4552 30.5835 98.9441 30.9811C98.4329 31.3786 97.8366 31.691 97.1551 31.8898C96.4736 32.0886 95.7068 32.1737 94.8833 32.1737H94.9401Z" fill="black"/>
<path d="M115.187 28.255C115.329 28.5105 115.471 28.6809 115.641 28.8229C115.812 28.9649 115.982 29.0501 116.152 29.1353C116.323 29.1921 116.522 29.2489 116.692 29.2773C116.862 29.3057 117.033 29.3057 117.146 29.3057H117.97V31.8046H116.947C116.635 31.8046 116.351 31.7762 116.039 31.7478C115.755 31.7194 115.442 31.6342 115.158 31.5206C114.875 31.407 114.591 31.2083 114.307 30.9527C114.023 30.6971 113.767 30.3563 113.483 29.9304L111.666 26.9771H111.495C111.041 26.9771 110.672 26.9771 110.359 27.0055C110.047 27.0339 109.763 27.0623 109.536 27.1191C109.309 27.1759 109.082 27.2611 108.883 27.3463C108.684 27.4315 108.457 27.5451 108.201 27.6586V31.8046H105.816V20.0483H113.398C113.937 20.0483 114.449 20.1335 114.875 20.3039C115.3 20.4742 115.698 20.7298 116.039 21.0422C116.38 21.3545 116.635 21.7237 116.806 22.178C116.976 22.604 117.089 23.0867 117.089 23.5979C117.089 24.5066 116.862 25.2449 116.38 25.8128C115.897 26.3808 115.244 26.7783 114.392 27.0339L115.187 28.255ZM113.455 24.6486C113.795 24.6486 114.108 24.5634 114.363 24.3646C114.619 24.1658 114.761 23.8819 114.761 23.5127C114.761 23.2571 114.704 23.0583 114.591 22.888C114.477 22.746 114.363 22.6324 114.193 22.5472C114.023 22.462 113.852 22.4336 113.625 22.4052C113.426 22.3768 113.199 22.3768 113 22.3768H108.201V25.3301C108.656 25.0745 109.167 24.9041 109.706 24.7906C110.246 24.7054 110.842 24.6486 111.495 24.6486H113.455Z" fill="black"/>
<path d="M135.633 21.9225V31.8046H133.077V24.9325L128.931 30.4699L124.785 24.9325V31.8046H122.229V21.9225L121.065 20.0483H123.933L128.931 26.6931L133.957 20.0483H136.825L135.633 21.9225Z" fill="black"/>
<path d="M143.584 19.7643H146.112L152.473 31.8046H149.917L148.98 30.044H147.56C146.822 30.044 146.112 30.1007 145.402 30.2143C144.692 30.3279 144.039 30.4699 143.471 30.6687C142.874 30.8391 142.392 31.0378 141.994 31.2082C141.597 31.407 141.341 31.549 141.256 31.6626L141.199 31.8046H138.757L144.379 21.2409L143.584 19.7643ZM147.872 27.9142L145.572 23.5411L142.789 28.9365C143.158 28.7377 143.755 28.5105 144.55 28.2833C145.345 28.0278 146.339 27.9142 147.56 27.9142H147.872Z" fill="black"/>
<path d="M154.517 30.4131C154.517 30.0439 154.659 29.7032 154.914 29.4476C155.17 29.192 155.482 29.05 155.88 29.05C156.249 29.05 156.59 29.192 156.845 29.4476C157.101 29.7032 157.243 30.0439 157.243 30.4131C157.243 30.7823 157.101 31.123 156.845 31.3786C156.59 31.6342 156.249 31.7761 155.88 31.7761C155.511 31.7761 155.17 31.6342 154.914 31.3786C154.659 31.0946 154.517 30.7823 154.517 30.4131Z" fill="black"/>
<path d="M168.545 22.9447C168.09 22.5755 167.579 22.2915 166.983 22.1496C166.387 22.0076 165.762 21.9224 165.08 21.9224C164.796 21.9224 164.512 21.9508 164.228 22.036C163.944 22.0928 163.689 22.2064 163.462 22.3199C163.235 22.4335 163.064 22.5755 162.894 22.7175C162.752 22.8879 162.667 23.0299 162.667 23.2002C162.667 23.3706 162.695 23.541 162.752 23.683C162.809 23.825 162.922 23.9386 163.093 24.0521C163.263 24.1373 163.518 24.2225 163.859 24.2793C164.2 24.3361 164.654 24.3645 165.222 24.3645C166.472 24.3645 167.466 24.4497 168.232 24.6485C168.999 24.8473 169.567 25.1028 169.993 25.4436C170.391 25.7844 170.674 26.1535 170.816 26.6079C170.958 27.0338 171.015 27.4882 171.015 27.9709C171.015 28.6808 170.873 29.3056 170.561 29.8167C170.249 30.3279 169.851 30.7822 169.311 31.123C168.772 31.4637 168.147 31.7193 167.409 31.8897C166.671 32.0601 165.904 32.1453 165.08 32.1453C164.03 32.1453 163.036 31.9181 162.127 31.4637C161.19 31.0094 160.395 30.4131 159.742 29.6463L161.417 27.9425C161.588 28.1129 161.786 28.3401 161.985 28.5673C162.184 28.7944 162.439 28.9932 162.723 29.192C163.007 29.3908 163.32 29.5611 163.717 29.6747C164.086 29.8167 164.541 29.8735 165.08 29.8735C166.159 29.8735 167.04 29.7031 167.721 29.3908C168.374 29.0784 168.715 28.5957 168.715 27.9709C168.715 27.4314 168.403 27.0906 167.806 26.9202C167.21 26.7499 166.301 26.6647 165.08 26.6647C164.37 26.6647 163.717 26.6079 163.121 26.4943C162.525 26.3807 162.013 26.1819 161.587 25.8979C161.162 25.614 160.821 25.2448 160.565 24.8189C160.31 24.3645 160.196 23.825 160.196 23.2002C160.196 22.6607 160.338 22.178 160.594 21.752C160.849 21.3261 161.218 20.9285 161.644 20.6161C162.07 20.3038 162.61 20.0766 163.178 19.9062C163.774 19.7358 164.399 19.6506 165.052 19.6506C165.904 19.6506 166.756 19.7358 167.579 19.9346C168.403 20.1334 169.226 20.5309 170.107 21.1273L168.545 22.9447Z" fill="black"/>
<path d="M177.434 31.8046H175.105V20.0483H177.434V24.7622C177.831 24.5634 178.285 24.4782 178.825 24.4782C179.308 24.4782 179.876 24.535 180.529 24.6486C181.182 24.7622 181.778 24.819 182.375 24.819C182.63 24.819 182.886 24.7906 183.113 24.7622C183.368 24.7338 183.596 24.6486 183.851 24.535V20.0483H186.18V31.8046H183.851V26.8919C183.624 27.0055 183.397 27.0907 183.17 27.1191C182.943 27.1475 182.715 27.1759 182.46 27.1759C181.835 27.1759 181.21 27.1191 180.642 27.0055C180.074 26.8919 179.478 26.8351 178.91 26.8351C178.655 26.8351 178.399 26.8635 178.172 26.8919C177.916 26.9203 177.689 27.0055 177.434 27.1191V31.8046Z" fill="black"/>
<path d="M204.382 25.8128C204.382 26.8067 204.183 27.7154 203.785 28.4821C203.388 29.2773 202.877 29.9304 202.224 30.4699C201.57 31.0095 200.832 31.4354 199.98 31.7194C199.128 32.0034 198.276 32.1453 197.368 32.1453C196.459 32.1453 195.607 32.0034 194.784 31.7194C193.96 31.4354 193.222 31.0379 192.569 30.4983C191.916 29.9588 191.404 29.3056 191.035 28.5105C190.638 27.7438 190.467 26.8351 190.467 25.8412C190.467 24.8473 190.666 23.967 191.064 23.1719C191.461 22.4052 191.972 21.7521 192.625 21.2125C193.279 20.673 194.017 20.2754 194.869 20.0199C195.692 19.7359 196.573 19.6223 197.453 19.6223C198.333 19.6223 199.185 19.7643 200.037 20.0199C200.889 20.2754 201.627 20.673 202.28 21.1841C202.934 21.6953 203.445 22.3484 203.842 23.1151C204.183 23.9102 204.382 24.7905 204.382 25.8128ZM201.911 25.8412C201.911 25.1881 201.769 24.6202 201.514 24.1374C201.258 23.6547 200.917 23.2571 200.491 22.9448C200.065 22.6324 199.583 22.4052 199.043 22.2632C198.504 22.1212 197.964 22.036 197.396 22.036C196.828 22.036 196.26 22.1212 195.721 22.2632C195.181 22.4052 194.698 22.6608 194.301 22.9731C193.903 23.2855 193.563 23.6831 193.279 24.1658C193.023 24.6486 192.881 25.2165 192.881 25.898C192.881 26.5512 193.023 27.1475 193.279 27.6302C193.534 28.113 193.875 28.5105 194.301 28.8229C194.727 29.1353 195.21 29.3624 195.749 29.5328C196.289 29.6748 196.828 29.76 197.425 29.76C197.992 29.76 198.532 29.6748 199.043 29.5044C199.583 29.334 200.037 29.0785 200.463 28.7377C200.889 28.3969 201.23 27.9994 201.485 27.4883C201.769 27.0339 201.911 26.466 201.911 25.8412Z" fill="black"/>
<path d="M208.669 31.8046V20.0483H216.138C216.706 20.0483 217.217 20.1335 217.7 20.3039C218.182 20.4742 218.58 20.7298 218.921 21.0422C219.261 21.3545 219.517 21.7521 219.716 22.2348C219.915 22.6892 220 23.2003 220 23.7683C220 24.9609 219.631 25.8696 218.864 26.5512C218.126 27.2327 217.075 27.5734 215.74 27.5734H214.69C214.15 27.5734 213.696 27.5734 213.327 27.6018C212.957 27.6302 212.673 27.6586 212.389 27.7154C212.134 27.7722 211.878 27.829 211.68 27.9142C211.481 27.9994 211.225 28.113 210.97 28.255V31.8046H208.669ZM210.998 25.898C211.509 25.5857 212.077 25.4153 212.73 25.3301C213.355 25.2449 214.036 25.2165 214.718 25.2165H215.769C216.337 25.2165 216.791 25.1313 217.132 24.9609C217.472 24.7906 217.643 24.393 217.643 23.7399C217.643 23.4559 217.586 23.2287 217.472 23.03C217.359 22.8596 217.217 22.7176 217.047 22.604C216.876 22.5188 216.677 22.4336 216.45 22.4052C216.223 22.3768 215.996 22.3484 215.769 22.3484H210.998V25.898Z" fill="black"/>
</svg>
